# xmcd CD database file
#
# Track frame offsets:
#	150
#	23083
#	49480
#	71870
#	97195
#	120835
#	147208
#	169178
#	191383
#	210663
#	234953
#	252493
#	275443
#
# Disc length: 4007 seconds
#
# Revision: 0
# Processed by: cddbd v1.5.1PL0 Copyright (c) Steve Scherf et al.
# Submitted via: CDex 1.51
#
DISCID=bc0fa50d
DTITLE=MASANORI SHIMADA（島田昌典） - MYTH OF CONSTELLATION（星座の神話）
DYEAR=1996
DGENRE=New Age
TTITLE0=HELLESPONTOS（牡羊座の神話）
TTITLE1=NYMPH IO（牡牛座の神話）
TTITLE2=ST.ELMOS FIRE（双子座の神話）
TTITLE3=IN THE PRAESEPE（蟹座の神話）
TTITLE4=REGULUS LIGHTS（獅子座の神話）
TTITLE5=DEMETERS SPICA（乙女座の神話）
TTITLE6=THE GODDESS OF JUSTICE（天秤座の神話）
TTITLE7=PRAYER FOR ANTARESS（蠍座の神話）
TTITLE8=CHEIRON（射手座の神話）
TTITLE9=SHEPHERDS' PIPE（山羊座の神話）
TTITLE10=A SPRING OF WISDOM（水瓶座の神話）
TTITLE11=APHRODITEIS（魚座の神話）
TTITLE12=MYTH OF CONSTELLATION（星座の神話メインテーマ）
EXTD=YEAR: 1996
EXTT0=
EXTT1=
EXTT2=
EXTT3=
EXTT4=
EXTT5=
EXTT6=
EXTT7=
EXTT8=
EXTT9=
EXTT10=
EXTT11=
EXTT12=
PLAYORDER=
